<mxfile host="65bd71144e">
    <diagram id="HIP3nbAZw_EuaXWnEj3U" name="Page-1">
        <mxGraphModel dx="606" dy="512" grid="1" gridSize="10" guides="1" tooltips="1" connect="1" arrows="1" fold="1" page="1" pageScale="1" pageWidth="850" pageHeight="1100" math="0" shadow="0">
            <root>
                <mxCell id="0"/>
                <mxCell id="1" parent="0"/>
                <mxCell id="7" value="http://ics2o.mths.ca" style="swimlane;whiteSpace=wrap;html=1;align=center;" parent="1" vertex="1">
                    <mxGeometry x="50" y="40" width="760" height="480" as="geometry"/>
                </mxCell>
                <mxCell id="9" value="Area of Trapezoid, with JS" style="text;html=1;align=center;verticalAlign=middle;resizable=0;points=[];autosize=1;strokeColor=none;fillColor=none;fontStyle=0;fontSize=20;" vertex="1" parent="7">
                    <mxGeometry y="20" width="260" height="40" as="geometry"/>
                </mxCell>
                <mxCell id="10" value="Formula" style="text;html=1;align=center;verticalAlign=middle;resizable=0;points=[];autosize=1;strokeColor=none;fillColor=none;fontSize=20;" vertex="1" parent="7">
                    <mxGeometry y="70" width="100" height="40" as="geometry"/>
                </mxCell>
                <mxCell id="11" value="A = [ (a+b) / 2 ] h" style="text;html=1;align=center;verticalAlign=middle;resizable=0;points=[];autosize=1;strokeColor=none;fillColor=none;fontSize=20;" vertex="1" parent="7">
                    <mxGeometry y="100" width="180" height="40" as="geometry"/>
                </mxCell>
                <mxCell id="12" value="Please enter integers for dimensions:" style="text;html=1;align=center;verticalAlign=middle;resizable=0;points=[];autosize=1;strokeColor=none;fillColor=none;fontSize=20;" vertex="1" parent="7">
                    <mxGeometry y="170" width="350" height="40" as="geometry"/>
                </mxCell>
                <mxCell id="13" value="a base:&amp;nbsp; &amp;nbsp; &amp;nbsp; &amp;nbsp; &amp;nbsp; &amp;nbsp; &amp;nbsp; &amp;nbsp; &amp;nbsp; &amp;nbsp; &amp;nbsp; mm" style="text;html=1;align=center;verticalAlign=middle;resizable=0;points=[];autosize=1;strokeColor=none;fillColor=none;fontSize=17;" vertex="1" parent="7">
                    <mxGeometry y="225" width="220" height="30" as="geometry"/>
                </mxCell>
                <mxCell id="14" value="b base:&amp;nbsp; &amp;nbsp; &amp;nbsp; &amp;nbsp; &amp;nbsp; &amp;nbsp; &amp;nbsp; &amp;nbsp; &amp;nbsp; &amp;nbsp; &amp;nbsp; mm" style="text;html=1;align=center;verticalAlign=middle;resizable=0;points=[];autosize=1;strokeColor=none;fillColor=none;fontSize=17;" vertex="1" parent="7">
                    <mxGeometry y="250" width="220" height="30" as="geometry"/>
                </mxCell>
                <mxCell id="15" value="height:&amp;nbsp; &amp;nbsp; &amp;nbsp; &amp;nbsp; &amp;nbsp; &amp;nbsp; &amp;nbsp; &amp;nbsp; &amp;nbsp; &amp;nbsp; &amp;nbsp; &amp;nbsp;mm" style="text;html=1;align=center;verticalAlign=middle;resizable=0;points=[];autosize=1;strokeColor=none;fillColor=none;fontSize=17;" vertex="1" parent="7">
                    <mxGeometry y="280" width="220" height="30" as="geometry"/>
                </mxCell>
                <mxCell id="16" value="" style="rounded=1;whiteSpace=wrap;html=1;fontSize=17;" vertex="1" parent="7">
                    <mxGeometry x="80" y="232.5" width="90" height="15" as="geometry"/>
                </mxCell>
                <mxCell id="18" value="" style="rounded=1;whiteSpace=wrap;html=1;fontSize=17;" vertex="1" parent="7">
                    <mxGeometry x="80" y="257.5" width="90" height="15" as="geometry"/>
                </mxCell>
                <mxCell id="19" value="" style="rounded=1;whiteSpace=wrap;html=1;fontSize=17;" vertex="1" parent="7">
                    <mxGeometry x="80" y="287.5" width="90" height="15" as="geometry"/>
                </mxCell>
                <mxCell id="20" value="Calculate Area" style="rounded=1;whiteSpace=wrap;html=1;fontSize=17;" vertex="1" parent="7">
                    <mxGeometry x="20" y="340" width="120" height="30" as="geometry"/>
                </mxCell>
                <mxCell id="21" value="Area is: 40 mmÂ²" style="text;html=1;align=center;verticalAlign=middle;resizable=0;points=[];autosize=1;strokeColor=none;fillColor=none;fontSize=17;" vertex="1" parent="7">
                    <mxGeometry x="10" y="390" width="140" height="30" as="geometry"/>
                </mxCell>
            </root>
        </mxGraphModel>
    </diagram>
</mxfile>